<?xml version="1.0" encoding="utf-8"?>
<!-- Generator: Adobe Illustrator 16.0.3, SVG Export Plug-In . SVG Version: 6.00 Build 0)  -->
<!DOCTYPE svg PUBLIC "-//W3C//DTD SVG 1.1//EN" "http://www.w3.org/Graphics/SVG/1.1/DTD/svg11.dtd">
<svg version="1.1" id="Layer_1" xmlns="http://www.w3.org/2000/svg" xmlns:xlink="http://www.w3.org/1999/xlink" x="0px" y="0px"
	 width="800px" height="800px" viewBox="0 0 800 800" enable-background="new 0 0 800 800" xml:space="preserve">
<g>
	<path fill="#C2D5E5" d="M800,180.836L739.876,76.528c0,2.819,47.137,82.554,60.124,104.469V180.836z"/>
	<path fill="#B9D0E2" d="M800,599.939c-24.087-19.523-60.124-48.655-60.124-48.175v0.726L800,600.29V599.939z"/>
	<path fill="#B9D0E2" d="M800,353.55l-60.124,48.637c0,0,29.379-23.271,60.124-47.859V353.55z"/>
	<path fill="#C2D5E5" d="M800,103.844c-30.481-14.522-60.124-28.373-60.124-27.315L800,104.654V103.844z"/>
	<polygon fill="#B9D0E2" points="800,292.275 739.876,288.916 800,292.968 	"/>
	<polygon fill="#ADC7DC" points="788.725,720.28 779.413,732.222 779.386,732.249 779.656,732.477 778.988,732.769 778.897,732.889 
		778.835,732.833 767.703,737.643 800,737.643 800,720.654 800,705.999 800,705.823 	"/>
	<polygon fill="#ADC7DC" points="800,624.491 739.876,645.433 692.947,661.463 739.876,673.233 800,688.318 	"/>
	<polygon fill="#ADC7DC" points="778.897,732.889 778.988,732.769 778.835,732.833 	"/>
	<polygon fill="#E1EAF2" points="800,688.318 739.876,673.233 692.947,661.463 692.835,661.498 708.589,674.563 739.876,700.057 
		779.386,732.249 779.413,732.222 788.725,720.28 800,705.823 	"/>
	<path fill="#B9D0E2" d="M800,552.687l-60.124-0.922c0-0.48,36.037,28.651,60.124,48.175V552.687z"/>
	<polygon fill="#D3E1ED" points="800,532.65 739.876,497.307 739.876,551.765 800,552.687 	"/>
	<polygon fill="#E1EAF2" points="800,491.871 739.876,497.307 800,532.65 	"/>
	<polygon fill="#D0DFEB" points="800,438.627 739.876,402.187 739.876,497.307 800,491.871 	"/>
	<path fill="#E1EAF2" d="M800,354.327c-30.745,24.588-60.124,47.859-60.124,47.859L800,438.627V354.327z"/>
	<polygon fill="#B9D0E2" points="800,292.968 739.876,288.916 739.876,402.187 800,353.55 	"/>
	<polygon fill="#C2D5E5" points="800,191.831 739.876,288.916 800,292.275 	"/>
	<polygon fill="#C2D5E5" points="800,104.654 739.876,76.528 800,180.836 	"/>
	<path fill="#ADC7DC" d="M799.621,0h-43.288h-16.457v76.528c0-1.058,29.643,12.793,60.124,27.315V54.15V0.778L799.621,0z"/>
	<polyline fill="#E6EEF5" points="656.961,785.574 739.876,749.689 740.337,749.486 767.287,737.829 767.703,737.643 
		778.835,732.833 778.988,732.769 779.656,732.477 779.386,732.249 739.876,700.057 708.589,674.563 	"/>
	<polyline fill="#D0DFEB" points="708.589,674.563 692.638,661.568 692.32,661.677 692.443,661.405 692.043,661.082 
		692.017,661.139 621.596,603.682 648.423,737.643 647.669,737.772 647.669,737.785 656.961,785.574 	"/>
	<polygon fill="#E6EEF5" points="767.287,737.829 767.751,737.643 767.703,737.643 	"/>
	<polygon fill="#D0DFEB" points="780.314,737.643 780.282,737.643 767.751,737.643 767.287,737.829 740.337,749.486 
		739.876,749.689 739.876,800 764.916,800 800,800 800,799.917 800,798.272 800,737.643 	"/>
	<path fill="#D0DFEB" d="M0,317.251v0.097l22.868,4.239C22.868,321.587,13.584,319.821,0,317.251z"/>
	<path fill="#ADC7DC" d="M198.726,0c13.679,46.805,26.566,90.687,26.566,90.687L198.947,0H198.726z"/>
	<path fill="#D0DFEB" d="M263.701,597.694l-72.552-70.253C191.755,529.078,263.701,597.694,263.701,597.694z"/>
	<polygon fill="#D3E1ED" points="433.197,569.921 351.499,575.367 513.679,565.015 	"/>
	<polygon fill="#D0DFEB" points="692.638,661.568 708.589,674.563 692.835,661.498 	"/>
	<polygon fill="#E1EAF2" points="692.929,572.648 621.596,603.682 739.876,552.49 	"/>
	<polygon fill="#D3E1ED" points="59.451,647.612 72.461,720.948 49.698,587.341 	"/>
	<polygon fill="#D0DFEB" points="504.536,501.302 433.197,569.921 564.896,444.121 	"/>
	<path fill="#D3E1ED" d="M478.316,620.566l-126.817-45.199c-0.019-0.028-0.006-0.016,0.042,0.024
		C353.842,577.389,478.316,620.566,478.316,620.566z"/>
	<path fill="#C2D5E5" d="M621.596,603.682c0,0,40.242-92.03,40.242-92.579L621.596,603.682z"/>
	<path fill="#D3E1ED" d="M572.468,684.04c-6.208-4.234-94.736-64.531-94.151-63.474L572.468,684.04z"/>
	<path fill="#ADC7DC" d="M351.499,575.367l20.46,22.063c-11.641-12.618-19.739-21.373-20.418-22.038
		C351.493,575.352,351.48,575.339,351.499,575.367z"/>
	<path fill="#ADC7DC" d="M385.069,500.661l46.704-112.991h-0.005C430.928,389.525,386.576,497.015,385.069,500.661z"/>
	<polygon fill="#B9D0E2" points="122.862,23.161 317.961,152.771 225.292,90.687 	"/>
	<path fill="#D0DFEB" d="M162.509,410.275l-57.684-35.989l0.066,0.133c30.115,19.3,56.993,36.48,56.993,36.48L162.509,410.275z"/>
	<polygon fill="#C4D7E6" points="22.868,321.587 4.223,449.781 15.553,373.868 	"/>
	<path fill="#D3E1ED" d="M22.868,321.587c0.698,0.623,26.11,16.977,55.013,35.519L22.868,321.587z"/>
	<path fill="#C2D5E5" d="M680.818,93.612l-53.128,13.414l-131.694,37.032C495.996,144.059,608.625,112.907,680.818,93.612z"/>
	<path fill="#ADC7DC" d="M572.713,683.638c-1.452-7.151-18.181-73.42-18.181-73.42l18.145,73.478L572.713,683.638z"/>
	<polygon fill="#E1EAF2" points="0,726.945 59.451,647.612 17.178,702.792 0,726.554 	"/>
	<path fill="#E1EAF2" d="M454.15,265.369c7.336,15.313,110.746,178.752,110.746,178.752L453.724,264.23l0.153,0.401
		C453.948,264.822,454.033,265.065,454.15,265.369z"/>
	<polygon fill="#C2D5E5" points="159.188,737.643 166.994,760.52 167.008,760.52 159.326,737.643 129.364,648.335 144.808,695.535 	
		"/>
	<path fill="#ADC7DC" d="M661.838,511.103l-96.941-66.981C567.534,446.479,661.838,511.103,661.838,511.103z"/>
	<path fill="#E6EEF5" d="M106.081,113.095l-7.611,40.762l0.629,0.596C100.261,147.479,102.933,131.551,106.081,113.095z"/>
	<polygon fill="#C4D7E6" points="263.501,309.248 431.772,387.67 337.473,343.373 	"/>
	<polygon fill="#E1EAF2" points="431.772,387.67 564.896,444.121 512.259,421.791 	"/>
	<polygon fill="#E6EEF5" points="524.047,262.773 495.996,144.059 564.896,444.121 	"/>
	<polygon fill="#ADC7DC" points="374.056,643.439 405.766,737.643 351.499,575.367 	"/>
	<path fill="#E1EAF2" d="M283.035,690.195l-5.598-26.779c2.851,13.829,5.124,24.863,5.51,26.747L283.035,690.195z"/>
	<polygon fill="#D3E1ED" points="692.043,661.082 692.443,661.405 739.876,552.49 	"/>
	<polygon fill="#E1EAF2" points="188.482,238.61 263.501,309.248 188.709,238.813 	"/>
	<polygon fill="#C2D5E5" points="125.302,465.357 161.885,410.899 93.615,510.536 	"/>
	<path fill="#E1EAF2" d="M647.669,737.772l0.754-0.13l-26.827-133.961c0,0-48.774,82.229-48.774,80.597"/>
	<polyline fill="#E6EEF5" points="572.821,684.278 539.817,737.643 527.705,757.25 647.669,737.772 	"/>
	<path fill="#E6EEF5" d="M572.821,684.278c0-0.072-0.054-0.319-0.108-0.641l-0.036,0.058L572.821,684.278z"/>
	<polygon fill="#D3E1ED" points="572.468,684.04 478.316,620.566 467.951,701.706 572.821,684.278 	"/>
	<polygon fill="#C2D5E5" points="572.821,684.278 467.951,701.706 506.613,737.643 527.705,757.25 539.817,737.643 	"/>
	<path fill="#E6EEF5" d="M351.541,575.392c0.679,0.665,8.777,9.42,20.418,22.038l29.53,31.854c0,0,65.849,71.333,66.462,72.423
		l10.365-81.14C478.316,620.566,353.842,577.389,351.541,575.392z"/>
	<path fill="#D3E1ED" d="M401.489,629.283l4.276,108.359l62.186-35.937C467.338,700.616,401.489,629.283,401.489,629.283z"/>
	<polygon fill="#ADC7DC" points="371.959,597.43 351.499,575.367 405.766,737.643 401.489,629.283 	"/>
	<polygon fill="#C2D5E5" points="313.015,737.643 297.844,761.063 405.766,737.643 374.056,643.439 	"/>
	<path fill="#E1EAF2" d="M277.437,663.416l5.598,26.779l0.18,0.073l9.789,47.374l4.841,23.421l15.171-23.421l61.041-94.203
		l-110.355-45.745C263.701,596.992,271.732,635.786,277.437,663.416z"/>
	<polygon fill="#B9D0E2" points="374.056,643.439 351.499,575.367 263.701,597.694 	"/>
	<path fill="#E6EEF5" d="M277.437,663.416c-5.705-27.63-13.736-66.424-13.736-65.722l-48.17,64.254l67.416,28.215
		C282.561,688.279,280.288,677.245,277.437,663.416z"/>
	<polygon fill="#D3E1ED" points="283.214,690.269 283.035,690.195 282.947,690.163 215.531,661.948 278.393,737.643 
		297.844,761.063 293.003,737.643 	"/>
	<path fill="#D0DFEB" d="M191.149,527.441l24.382,134.507l48.17-64.254C263.701,597.694,191.755,529.078,191.149,527.441z"/>
	<polygon fill="#E1EAF2" points="129.364,648.335 215.531,661.948 191.149,527.441 	"/>
	<polygon fill="#C2D5E5" points="215.531,661.948 129.364,648.335 159.326,737.643 167.008,760.52 167.042,760.646 167.366,761.608 
		178.949,737.643 	"/>
	<polygon fill="#C2D5E5" points="129.364,648.335 72.461,720.948 144.808,695.535 	"/>
	<polygon fill="#D3E1ED" points="49.698,587.341 72.461,720.948 129.364,648.335 	"/>
	<polygon fill="#D0DFEB" points="142.367,548.677 49.698,587.341 129.364,648.335 191.149,527.441 	"/>
	<polygon fill="#E1EAF2" points="0,735.979 72.461,720.948 59.451,647.612 0,726.945 	"/>
	<polygon fill="#D0DFEB" points="0,604.345 59.451,647.612 49.698,587.341 0,577.601 	"/>
	<polygon fill="#D0DFEB" points="0,604.345 0,668.172 17.178,702.792 59.451,647.612 	"/>
	<polygon fill="#D0DFEB" points="0,668.172 0,726.554 17.178,702.792 	"/>
	<polygon fill="#D3E1ED" points="739.876,552.49 692.443,661.405 692.32,661.677 692.638,661.568 692.835,661.498 692.947,661.463 
		739.876,645.433 800,624.491 800,600.29 	"/>
	<polygon fill="#E1EAF2" points="621.596,603.682 692.017,661.139 692.043,661.082 739.876,552.49 	"/>
	<polygon fill="#C4D7E6" points="263.701,597.694 269.186,487.688 191.149,527.441 	"/>
	<path fill="#D3E1ED" d="M93.592,510.557L63.72,487.14c0.609,1.46-14.022,100.201-14.022,100.201l92.669-38.664l48.782-21.235
		L93.592,510.557z"/>
	<polygon fill="#C2D5E5" points="263.701,597.694 351.499,575.367 269.186,487.688 	"/>
	<path fill="#C2D5E5" d="M572.468,684.04l0.354,0.238l-0.145-0.583l-18.145-73.478l-76.216,10.349
		C477.731,619.509,566.26,679.806,572.468,684.04z"/>
	<path fill="#ADC7DC" d="M572.713,683.638c0.055,0.321,0.108,0.568,0.108,0.641c0,1.632,48.774-80.597,48.774-80.597l-67.063,6.536
		C554.532,610.218,571.261,676.486,572.713,683.638z"/>
	<path fill="#E6EEF5" d="M661.838,511.103c0,0.549-40.242,92.579-40.242,92.579l71.333-31.033L661.838,511.103z"/>
	<polygon fill="#ADC7DC" points="739.876,552.49 661.838,511.103 692.929,572.648 	"/>
	<polygon fill="#E1EAF2" points="739.876,552.481 739.876,551.765 739.876,497.493 661.838,511.103 739.876,552.49 	"/>
	<polygon fill="#C2D5E5" points="616.716,553.036 554.532,610.218 621.596,603.682 661.838,511.103 	"/>
	<polygon fill="#E1EAF2" points="478.316,620.566 554.532,610.218 513.679,565.015 	"/>
	<polygon fill="#D3E1ED" points="513.679,565.015 351.499,575.367 478.316,620.566 	"/>
	<polygon fill="#B9D0E2" points="554.532,610.218 616.716,553.036 513.679,565.015 	"/>
	<polygon fill="#C2D5E5" points="513.679,565.015 616.716,553.036 564.896,444.121 	"/>
	<polygon fill="#D0DFEB" points="433.197,569.921 513.679,565.015 564.896,444.121 	"/>
	<polygon fill="#E6EEF5" points="385.034,500.758 351.499,575.367 433.197,569.921 	"/>
	<polygon fill="#C2D5E5" points="385.034,500.758 433.197,569.921 504.536,501.302 	"/>
	<polygon fill="#B9D0E2" points="269.186,487.688 351.499,575.367 385.034,500.758 	"/>
	<path fill="#B9D0E2" d="M616.716,553.036l45.122-41.934c0,0-94.304-64.623-96.941-66.981L616.716,553.036z"/>
	<path fill="#ADC7DC" d="M661.838,511.103c0,0,9.751-141.59,9.751-143.771l-106.692,76.789L661.838,511.103z"/>
	<path fill="#C2D5E5" d="M661.838,511.103l78.038-109.64l-68.287-34.131C671.589,369.513,661.838,511.103,661.838,511.103z"/>
	<polygon fill="#E6EEF5" points="739.876,497.493 739.876,497.307 739.876,402.187 739.876,401.463 661.838,511.103 	"/>
	<polygon fill="#C4D7E6" points="0,553.14 0,577.601 49.698,587.341 	"/>
	<path fill="#E1EAF2" d="M63.72,487.14L0,486.287v66.853l49.698,34.201C49.698,587.341,64.33,488.6,63.72,487.14z"/>
	<polygon fill="#ADC7DC" points="0,486.287 63.72,487.14 4.175,450.113 0,447.478 	"/>
	<polygon fill="#E1EAF2" points="0,317.348 0,332.455 22.868,321.587 	"/>
	<polygon fill="#C4D7E6" points="0,332.455 0,447.478 4.175,450.113 4.223,449.781 22.868,321.587 	"/>
	<polygon fill="#D0DFEB" points="4.175,450.113 63.72,487.14 161.885,410.899 	"/>
	<polygon fill="#E1EAF2" points="15.553,373.868 4.223,449.781 4.175,450.113 161.885,410.899 	"/>
	<path fill="#E6EEF5" d="M161.885,410.899c0,0-26.878-17.181-56.993-36.48l0.084,0.178L77.88,357.105
		c-28.902-18.542-54.315-34.896-55.013-35.519l-7.314,52.281L161.885,410.899z"/>
	<path fill="#E1EAF2" d="M739.876,401.463V289.641c0,0.726-68.287,77.691-68.287,77.691L739.876,401.463z"/>
	<path fill="#D0DFEB" d="M0,317.251c13.584,2.57,22.868,4.336,22.868,4.336l-1.621-124.881L0,213.506V317.251z"/>
	<polygon fill="#C2D5E5" points="161.885,410.899 125.302,465.357 93.615,510.536 161.885,410.899 63.72,487.14 93.592,510.557 
		191.149,527.441 	"/>
	<path fill="#D3E1ED" d="M431.772,387.67l-46.704,112.991c-0.026,0.061-0.035,0.097-0.035,0.097l119.502,0.544l60.36-57.181
		L431.772,387.67z"/>
	<polygon fill="#E1EAF2" points="671.589,367.332 639.889,247.525 564.896,444.121 	"/>
	<polygon fill="#E6EEF5" points="232.607,340.472 163.51,410.899 162.509,410.275 161.885,410.899 191.149,527.441 263.501,309.248 
			"/>
	<path fill="#7EA7C9" d="M453.877,264.632l0.27,0.729c0,0,0.004,0,0.004,0.008C454.033,265.065,453.948,264.822,453.877,264.632z"/>
	<polygon fill="#D3E1ED" points="77.88,357.105 104.976,374.597 104.892,374.419 104.826,374.286 104.168,373.868 70.43,304.163 
		21.247,196.706 22.868,321.587 	"/>
	<polygon fill="#D0DFEB" points="163.51,410.899 232.607,340.472 104.168,373.868 104.826,374.286 162.509,410.275 	"/>
	<polygon fill="#D3E1ED" points="191.149,527.441 269.186,487.688 263.501,309.248 	"/>
	<path fill="#ADC7DC" d="M431.768,387.67L269.186,487.688l115.848,13.07c0,0,0.009-0.036,0.035-0.097
		C386.576,497.015,430.928,389.525,431.768,387.67z"/>
	<path fill="#E6EEF5" d="M453.877,264.632l-0.153-0.401c-0.026,0.11,0.128,0.516,0.423,1.131L453.877,264.632z"/>
	<path fill="#E1EAF2" d="M454.15,265.369c0-0.008-0.004-0.008-0.004-0.008c-0.295-0.615-0.449-1.021-0.423-1.131l-21.946,123.418
		c0.015-0.02,0.008-0.02-0.005,0.021l80.486,34.121l52.638,22.33C564.896,444.121,461.486,280.682,454.15,265.369z"/>
	<path fill="#E6EEF5" d="M671.589,367.332c0,0,68.287-76.966,68.287-77.691l-99.987-42.115L671.589,367.332z"/>
	<polygon fill="#B9D0E2" points="0,195.589 0,213.506 21.247,196.706 	"/>
	<polyline fill="#E1EAF2" points="21.247,196.706 70.43,304.163 98.469,153.856 	"/>
	<path fill="#E6EEF5" d="M98.469,153.856l7.611-40.762c6.171-36.192,14.186-82.089,16.301-89.114L21.247,196.706"/>
	<polygon fill="#C4D7E6" points="431.772,387.67 431.772,387.67 263.501,309.248 269.186,487.688 431.768,387.67 	"/>
	<polygon fill="#E6EEF5" points="564.896,444.121 495.996,144.059 453.724,264.23 	"/>
	<path fill="#D0DFEB" d="M739.876,289.641v-0.725V79.398c-3.257,11.595-99.987,168.127-99.987,168.127L739.876,289.641z"/>
	<polygon fill="#C2D5E5" points="70.43,304.163 104.168,373.868 232.607,340.472 	"/>
	<polygon fill="#E1EAF2" points="263.501,309.248 70.43,304.163 232.607,340.472 	"/>
	<polygon fill="#D3E1ED" points="564.896,444.121 639.889,247.525 524.047,262.773 	"/>
	<polygon fill="#D3E1ED" points="0,186.775 0,195.589 21.247,196.706 	"/>
	<path fill="#E6EEF5" d="M431.772,387.67L431.772,387.67c0.013-0.041,0.02-0.041,0.005-0.021l21.946-123.418l-116.251,79.143
		L431.772,387.67z"/>
	<polygon fill="#C4D7E6" points="0,76.002 0,186.775 21.247,196.706 	"/>
	<polyline fill="#D0DFEB" points="70.43,304.163 263.501,309.248 188.482,238.61 	"/>
	<path fill="#D3E1ED" d="M188.482,238.61l-90.013-80.394c0,0,0.229-1.354,0.629-3.765l-0.629-0.596L70.43,304.163"/>
	<polygon fill="#D0DFEB" points="639.889,247.525 495.996,144.059 524.047,262.773 	"/>
	<path fill="#C2D5E5" d="M495.996,144.059l143.893,103.467c0,0,96.73-156.532,99.987-168.127v-0.693l-59.058,14.907
		C608.625,112.907,495.996,144.059,495.996,144.059z"/>
	<path fill="#D5E2ED" d="M0,0.624v75.378l21.247,120.704L122.381,23.98c0.136-0.46,0.243-0.731,0.331-0.848L0,0.624z"/>
	<polygon fill="#D3E1ED" points="453.724,264.23 317.961,152.771 263.501,309.248 	"/>
	<polygon fill="#E1EAF2" points="337.473,343.373 453.724,264.23 263.501,309.248 	"/>
	<polygon fill="#D0DFEB" points="453.724,264.23 495.996,144.059 317.961,152.771 	"/>
	<path fill="#C2D5E5" d="M103.775,0H0v0.624l122.712,22.509c0.025-0.032,0.054-0.068,0.071-0.068L103.775,0z"/>
	<path fill="#E1EAF2" d="M739.876,0h-39.681l39.681,78.705v210.211L800,191.831v-10.834
		c-12.987-21.915-60.124-101.649-60.124-104.469V0z"/>
	<polygon fill="#E1EAF2" points="263.501,309.248 317.961,152.771 188.709,238.813 	"/>
	<polygon fill="#E6EEF5" points="516.583,0 495.996,144.059 627.69,107.026 526.905,0 	"/>
	<polygon fill="#E1EAF2" points="526.905,0 627.69,107.026 680.818,93.612 739.876,78.705 541.885,0 	"/>
	<path fill="#E1EAF2" d="M98.469,158.217l90.013,80.394l0.227,0.202L122.862,23.161l-0.079-0.097c-0.017,0-0.046,0.036-0.071,0.068
		c-0.088,0.116-0.194,0.388-0.331,0.848c-2.115,7.025-10.129,52.922-16.301,89.114c-3.147,18.456-5.82,34.384-6.982,41.357
		C98.699,156.863,98.469,158.217,98.469,158.217z"/>
	<path fill="#ADC7DC" d="M103.775,0l19.008,23.064l0.079,0.097c0,0,3.022-9.374,7.481-23.161H103.775z"/>
	<polyline fill="#E6EEF5" points="188.709,238.813 317.961,152.771 225.05,91.047 	"/>
	<polyline fill="#C4D7E6" points="225.05,91.047 122.862,23.161 188.709,238.813 	"/>
	<polygon fill="#D3E1ED" points="541.885,0 739.876,78.705 700.195,0 	"/>
	<polygon fill="#B9D0E2" points="398.697,0 225.292,90.687 317.961,152.771 407,0 	"/>
	<polygon fill="#ADC7DC" points="198.947,0 225.292,90.687 398.697,0 	"/>
	<polygon fill="#C4D7E6" points="407,0 317.961,152.771 495.996,144.059 414.187,0 	"/>
	<polygon fill="#D3E1ED" points="414.187,0 495.996,144.059 516.583,0 	"/>
	<path fill="#D5E2ED" d="M130.343,0c-4.458,13.787-7.481,23.161-7.481,23.161l102.43,67.525c0,0-12.887-43.882-26.566-90.687
		H130.343z"/>
	<polygon fill="#ADC7DC" points="255.024,761.245 299.669,761.608 405.766,737.643 297.844,761.063 	"/>
	<polygon fill="#C2D5E5" points="647.669,737.772 527.705,757.25 405.766,737.643 527.705,759.429 647.669,737.785 	"/>
	<path fill="#4F87B5" d="M178.227,800l-11.166-38.436l-0.066-0.007c1.005,3.905,5.221,18.627,10.959,38.442H178.227z"/>
	<polygon fill="#C2D5E5" points="0,745.412 0,800 44.991,800 	"/>
	<polygon fill="#E1EAF2" points="739.876,800 739.876,749.689 656.961,785.574 664.234,800 	"/>
	<path fill="#C2D5E5" d="M0,738.747v6.665L44.991,800h108.517c6.25-19.118,11.38-34.622,12.835-38.531L0,738.747z"/>
	<polygon fill="#ADC7DC" points="408.154,800 405.766,737.643 299.669,761.608 340.843,800 	"/>
	<polygon fill="#E6EEF5" points="664.234,800 656.961,785.574 630.655,800 	"/>
	<polygon fill="#C2D5E5" points="527.705,759.429 656.961,785.574 647.669,737.785 	"/>
	<polygon fill="#CDDDEA" points="167.04,760.638 167.042,760.646 167.008,760.52 166.994,760.52 	"/>
	<polygon fill="#E1EAF2" points="340.843,800 299.669,761.608 255.024,761.245 169.284,761.602 258.842,800 	"/>
	<polygon fill="#C2D5E5" points="482.753,800 527.705,759.429 405.766,737.643 408.154,800 	"/>
	<polygon fill="#C2D5E5" points="258.842,800 169.284,761.602 167.366,761.608 167.061,761.564 178.227,800 	"/>
	<polygon fill="#578DB9" points="167.04,760.638 167.366,761.608 167.042,760.646 	"/>
	<polygon fill="#ADC7DC" points="630.655,800 656.961,785.574 527.705,759.429 523.84,800 	"/>
	<polygon fill="#E6EEF5" points="523.84,800 527.705,759.429 482.753,800 	"/>
	<polygon fill="#ADC7DC" points="506.613,737.643 467.951,701.706 405.766,737.643 527.705,757.25 	"/>
	<polygon fill="#E6EEF5" points="278.393,737.643 215.531,661.948 178.949,737.643 167.366,761.608 169.284,761.602 
		255.024,761.245 297.844,761.063 	"/>
	<polygon fill="#E1EAF2" points="166.994,760.52 159.188,737.643 144.808,695.535 72.461,720.948 111.434,737.643 167.366,761.608 
		167.04,760.638 	"/>
	<path fill="#D0DFEB" d="M177.954,800c-5.738-19.815-9.954-34.537-10.959-38.442l0.066,0.007l0.306,0.044l-55.932-23.966
		l-38.973-16.694L0,735.979v2.768l166.343,22.722c-1.455,3.909-6.584,19.413-12.835,38.531H177.954z"/>
</g>
</svg>
